<svg xmlns="http://www.w3.org/2000/svg" version="1.1" xmlns:xlink="http://www.w3.org/1999/xlink" xmlns:svgjs="http://svgjs.com/svgjs" width="100%" height="100%" viewBox="0 0 1000 600"><rect width="1000" height="600" x="0" y="0" fill="#FFFFFFFF"/><g><rect width="333.3333333333333" height="333.3333333333333" rx="13.333333333333334" ry="13.333333333333334" y="256.3617002185687" fill="#209cee" transform="matrix(0.53386981213673,0,0,0.53386981213673,0,74.1579203941494)" x="234.13954162597656"/><path d="M340.83843745562837 498.0283741886375L286.9802605858696 498.0283741886375L286.9802605858696 485.04732285386973L303.7706497841132 482.17566815678794L303.7706497841132 363.99828659218673L286.9802605858696 361.12663189510494L286.9802605858696 348.0283701645379L395.75150788758043 348.0283701645379L395.75150788758043 381.19891217572774L378.34576411139074 381.19891217572774L376.79272636705053 363.99828659218673L324.0480482573847 363.99828659218673L324.0480482573847 482.17566815678794L340.83843745562837 485.04732285386973L340.83843745562837 498.0283741886375ZM473.4326977035382 482.9961409273827L453.12599663131687 482.9961409273827L453.12599663131687 435.7017462223824L411.8386347110285 435.7017462223824L411.8386347110285 417.3583192797986L453.12599663131687 417.3583192797986L453.12599663131687 373.7853546414247L473.4326977035382 373.7853546414247L473.4326977035382 417.3583192797986L514.6321518269772 417.3583192797986L514.6321518269772 435.7017462223824L473.4326977035382 435.7017462223824L473.4326977035382 482.9961409273827Z " fill="#ffffff" transform="matrix(0.53386981213673,0,0,0.53386981213673,0,74.1579203941494)"/><path d="M713.2567230814248 498.02836584407316L713.2567230814248 498.02836584407316Q694.0681666786774 498.02836584407316 680.0343420240661 489.14927293759786Q666.0005173694547 480.2701800311226 658.4168544310974 464.53610354335643Q650.8062033684043 448.7750389312544 650.8062033684043 428.1021356900385L650.8062033684043 428.1021356900385L650.8062033684043 425.80814512149624Q650.8062033684043 404.9463250099297 658.4438425554331 389.2392366464993Q666.0814817424621 373.5321482830689 679.3596389156712 364.7070316252652Q692.6647842132163 355.8819149674615 709.5323619230857 355.8819149674615L709.5323619230857 355.8819149674615Q725.6712602758887 355.8819149674615 736.9253081239136 359.60627612580066Q748.1523678476026 363.3036491598041 756.140852650997 369.5648940057076L756.140852650997 369.5648940057076L756.140852650997 397.44362644457976L740.7576217795959 397.44362644457976L738.7605005787474 377.4184381874228Q734.1185431929914 374.3957682618142 727.3715121090436 372.83045705033834Q720.6514691494316 371.26514583886245 711.4485187509268 371.26514583886245L711.4485187509268 371.26514583886245Q699.5737440431787 371.26514583886245 690.100912401316 378.0931412958176Q680.6010926351175 384.9211367527727 675.0955152706163 397.1197689525503Q669.5899379061149 409.31840115232785 669.5899379061149 425.61922825114567L669.5899379061149 425.61922825114567L669.5899379061149 428.1021356900385Q669.5899379061149 444.6188677835426 674.6637052812436 456.89846435632757Q679.7644607807081 469.17806092911246 689.5341617902645 475.952080137396Q699.3038627998208 482.75308747001543 713.2567230814248 482.75308747001543L713.2567230814248 482.75308747001543Q722.7295547232875 482.75308747001543 729.2876689368848 481.0798237611964Q735.8187950261462 479.4335481767131 740.865574276939 476.76172386746975L740.865574276939 476.76172386746975L740.865574276939 444.32199841584895L714.390224303528 443.37741406409623L714.390224303528 429.61347065284275L759.5413563173065 429.61347065284275L759.5413563173065 483.13092121071645Q753.5769808390967 488.71746294822526 742.430885488415 493.3864084583171Q731.2847901377334 498.02836584407316 713.2567230814248 498.02836584407316ZM827.3895008974853 496.0312446432246L777.7583402439654 496.0312446432246L777.7583402439654 484.0755055624692L793.2225354883738 481.4306693775617L793.2225354883738 408.07694743288147L777.7583402439654 405.4321112479739L777.7583402439654 393.3684196698753L809.9281844522286 393.3684196698753L811.5474719123758 406.457659972734L811.7363887827264 408.265864303232Q816.0814768007888 400.385331997181 822.5046503927072 395.93229148177545Q828.9008358602896 391.47925096636993 837.1592019070417 391.47925096636993L837.1592019070417 391.47925096636993Q840.1009074596429 391.47925096636993 843.177553633923 391.99202532875Q846.2541998082033 392.50479969113 847.6036060249928 392.99058592917424L847.6036060249928 392.99058592917424L845.1206985861002 410.34394987708794L832.1394107805845 409.5882823956858Q824.717676588242 409.12948428197734 819.6978854617848 412.96179793765964Q814.6780943353278 416.794111593342 811.925305653077 423.27126143393184L811.925305653077 423.27126143393184L811.925305653077 481.4306693775617L827.3895008974853 484.0755055624692L827.3895008974853 496.0312446432246ZM903.8468571407814 498.02836584407316L903.8468571407814 498.02836584407316Q889.6241156158196 498.02836584407316 879.0987471248611 491.5242278791475Q868.5733786339026 485.0200899142219 862.8249081503791 473.44218457416747Q857.0764376668556 461.86427923411316 857.0764376668556 446.6969533573985L857.0764376668556 446.6969533573985L857.0764376668556 442.5137940853509Q857.0764376668556 427.9132188196879 863.0947893937368 416.38928972830513Q869.1401292449541 404.83837251258655 879.1527233735326 398.1723058016462Q889.1653175021111 391.47925096636993 901.0131040855233 391.47925096636993L901.0131040855233 391.47925096636993Q914.8580118697844 391.47925096636993 924.2228910143037 397.1737452012219Q933.5607820344874 402.8682394360738 938.3106919175866 413.1507148080102Q943.0336136763501 423.4601783042824 943.0336136763501 437.38605046155055L943.0336136763501 437.38605046155055L943.0336136763501 449.07190829894813L876.4269228156177 449.07190829894813L876.1570415722599 449.53070641265657Q876.3459584426103 459.4083599195561 879.6115214872411 467.045999106585Q882.8770845318718 474.68363829361385 889.0573650047679 479.05571443601207Q895.237645477664 483.4008024540744 903.8468571407814 483.4008024540744L903.8468571407814 483.4008024540744Q913.3466769069798 483.4008024540744 920.4985298559645 480.70199002049526Q927.677370929285 478.0031775869162 932.8860789260928 473.25326770381696L932.8860789260928 473.25326770381696L940.1998606210921 485.3979236549229Q934.6942832565908 490.71458414907374 925.6262734797649 494.35798093440553Q916.585251827275 498.02836584407316 903.8468571407814 498.02836584407316ZM876.8047565563188 433.9855467952409L877.0206615510051 434.44434490894935L924.3578316359826 434.44434490894935L924.3578316359826 431.98842559439237Q924.3578316359826 424.5936795263856 921.7399835754111 418.76424466985475Q919.1221355148393 412.90782168898807 913.967403766703 409.56129427135Q908.7856838942312 406.1877787293761 901.0131040855233 406.1877787293761L901.0131040855233 406.1877787293761Q894.75185923962 406.1877787293761 889.6241156158196 409.8311755147079Q884.4963719920192 413.4745723000397 881.1768326987169 419.7358171459432Q877.8572934054146 425.99706199184675 876.8047565563188 433.9855467952409L876.8047565563188 433.9855467952409ZM1007.1843852225256 498.02836584407316L1007.1843852225256 498.02836584407316Q992.9616436975637 498.02836584407316 982.4092870822694 491.5242278791475Q971.8839185913107 485.0200899142219 966.1354481077874 473.44218457416747Q960.4139657485996 461.86427923411316 960.4139657485996 446.6969533573985L960.4139657485996 446.6969533573985L960.4139657485996 442.5137940853509Q960.4139657485996 427.9132188196879 966.4323174754811 416.38928972830513Q972.4506692023624 404.83837251258655 982.4632633309409 398.1723058016462Q992.4758574595194 391.47925096636993 1004.3236440429316 391.47925096636993L1004.3236440429316 391.47925096636993Q1018.1955399515284 391.47925096636993 1027.533430971712 397.1737452012219Q1036.8713219918957 402.8682394360738 1041.621231874995 413.1507148080102Q1046.3711417580942 423.4601783042824 1046.3711417580942 437.38605046155055L1046.3711417580942 437.38605046155055L1046.3711417580942 449.07190829894813L979.7644508973617 449.07190829894813L979.467581529668 449.53070641265657Q979.6564984000186 459.4083599195561 982.9490495689852 467.045999106585Q986.2146126136158 474.68363829361385 992.394893086512 479.05571443601207Q998.5481854350724 483.4008024540744 1007.1843852225256 483.4008024540744L1007.1843852225256 483.4008024540744Q1016.6842049887239 483.4008024540744 1023.8360579377086 480.70199002049526Q1030.9879108866933 478.0031775869162 1036.2236070078368 473.25326770381696L1036.2236070078368 473.25326770381696L1043.5104005785004 485.3979236549229Q1038.0318113383348 490.71458414907374 1028.963801561509 494.35798093440553Q1019.8957917846831 498.02836584407316 1007.1843852225256 498.02836584407316ZM980.1422846380628 433.9855467952409L980.3312015084134 434.44434490894935L1027.668371593391 434.44434490894935L1027.668371593391 431.98842559439237Q1027.668371593391 424.5936795263856 1025.0775116571551 418.76424466985475Q1022.4596635965834 412.90782168898807 1017.2779437241113 409.56129427135Q1012.1232119759754 406.1877787293761 1004.3236440429316 406.1877787293761L1004.3236440429316 406.1877787293761Q998.0623991970281 406.1877787293761 992.9616436975637 409.8311755147079Q987.8339000737633 413.4745723000397 984.514360780461 419.7358171459432Q981.1948214871588 425.99706199184675 980.1422846380628 433.9855467952409L980.1422846380628 433.9855467952409ZM1109.550340828181 496.0312446432246L1059.946168298997 496.0312446432246L1059.946168298997 484.0755055624692L1075.4103635434053 481.4306693775617L1075.4103635434053 362.73689854875244L1059.946168298997 360.0650742395091L1059.946168298997 348.0283707857463L1094.0861455837728 348.0283707857463L1094.0861455837728 481.4306693775617L1109.550340828181 484.0755055624692L1109.550340828181 496.0312446432246ZM1172.2707417845595 496.0312446432246L1125.8781560513348 496.0312446432246L1125.8781560513348 484.0755055624692L1136.322560169286 482.8340518430228L1136.0256908015922 482.4562181023217L1106.338754032222 444.1330815454983L1116.0005025444352 429.2356369121417L1157.481249648546 481.8085031182627L1172.2707417845595 484.0755055624692L1172.2707417845595 496.0312446432246ZM1150.9231354349488 407.88803056253096L1092.763727491319 466.3443078738544L1085.8277795370207 451.63578011084826L1130.4391490640835 407.21332745413616L1130.8979471777918 406.6465768430846L1119.9137805731248 405.4321112479739L1119.9137805731248 393.3684196698753L1164.1203282351507 393.3684196698753L1164.1203282351507 405.4321112479739L1150.9231354349488 407.88803056253096ZM1233.290890907783 496.0312446432246L1183.6597302542634 496.0312446432246L1183.6597302542634 484.0755055624692L1199.1239254986717 481.4306693775617L1199.1239254986717 372.5875639313162L1183.6597302542634 369.9427277464087L1183.6597302542634 357.9869886656532L1245.2466299885386 357.9869886656532Q1260.332991492246 357.9869886656532 1270.7234193615254 362.49400542973035Q1281.113847230805 367.00102219380744 1286.5114720979632 375.5292694839174Q1291.9090969651215 384.0845048983632 1291.9090969651215 396.41807771981973L1291.9090969651215 396.41807771981973Q1291.9090969651215 408.5627336709257 1286.6464127196423 416.794111593342Q1281.383728474163 425.0524776400941 1271.7219799619497 429.28961316081325Q1262.0332433254007 433.4997605571967 1248.7550861521916 433.7966299248904L1248.7550861521916 433.7966299248904L1217.826695663375 434.363380535942L1217.826695663375 481.4306693775617L1233.290890907783 484.0755055624692L1233.290890907783 496.0312446432246ZM1297.9004605676673 496.0312446432246L1274.8526023849015 496.0312446432246L1244.0861406420995 427.0495988409426L1262.788910806803 426.86068197059205L1288.3196764284612 482.07838436162064L1297.9004605676673 483.77863619477546L1297.9004605676673 496.0312446432246ZM1217.826695663375 372.5875639313162L1217.826695663375 419.65485277293584L1243.3304731606975 419.65485277293584Q1258.9835852754563 419.65485277293584 1266.108450100105 413.6634891703902Q1273.233314924754 407.6991136921804 1273.233314924754 396.2291608494692L1273.233314924754 396.2291608494692Q1273.233314924754 385.2989704934738 1266.405319467799 378.9567612745629Q1259.5773240108438 372.5875639313162 1245.2466299885386 372.5875639313162L1245.2466299885386 372.5875639313162L1217.826695663375 372.5875639313162ZM1361.6464102488058 496.0312446432246L1312.0422377196217 496.0312446432246L1312.0422377196217 484.0755055624692L1327.50643296403 481.4306693775617L1327.50643296403 362.73689854875244L1312.0422377196217 360.0650742395091L1312.0422377196217 348.0283707857463L1346.1822150043974 348.0283707857463L1346.1822150043974 407.02441058378565Q1351.4988754985484 399.62966451577887 1359.1904909342488 395.55445774107443Q1366.882106369949 391.47925096636993 1376.2739736388044 391.47925096636993L1376.2739736388044 391.47925096636993Q1392.763717607973 391.47925096636993 1401.8857036334703 401.3299163489337Q1410.9807015346319 411.20756985583324 1410.9807015346319 431.6915562266987L1410.9807015346319 431.6915562266987L1410.9807015346319 481.4306693775617L1426.44489677904 484.0755055624692L1426.44489677904 496.0312446432246L1376.840724249856 496.0312446432246L1376.840724249856 484.0755055624692L1392.3049194942644 481.4306693775617L1392.3049194942644 431.50263935634814Q1392.3049194942644 418.79123279419053 1386.8533183784346 412.71890481863755Q1381.4017172626045 406.6465768430846 1370.5794794039525 406.6465768430846L1370.5794794039525 406.6465768430846Q1362.887863968252 406.6465768430846 1356.572642873677 410.31696175275215Q1350.257421779102 413.96035853808394 1346.1822150043974 420.2216033839875L1346.1822150043974 420.2216033839875L1346.1822150043974 481.4306693775617L1361.6464102488058 484.0755055624692L1361.6464102488058 496.0312446432246ZM1484.1455066089613 498.02836584407316L1484.1455066089613 498.02836584407316Q1469.9227650839994 498.02836584407316 1459.6133015877272 491.33531100879696Q1449.330826215791 484.64225617352076 1443.7172963539465 472.8214577144443Q1438.1307546164376 461.0276473797036 1438.1307546164376 445.8333333786532L1438.1307546164376 445.8333333786532L1438.1307546164376 443.75524780479725Q1438.1307546164376 428.56093380374693 1443.7172963539465 416.7671234690062Q1449.330826215791 404.9463250099297 1459.6133015877272 398.1992939259819Q1469.9227650839994 391.47925096636993 1483.9565897386108 391.47925096636993L1483.9565897386108 391.47925096636993Q1498.1793312635727 391.47925096636993 1508.488794759845 398.1992939259819Q1518.7712701317814 404.9463250099297 1524.384799993626 416.71314722033463Q1529.9713417311345 428.4799694307395 1529.9713417311345 443.75524780479725L1529.9713417311345 443.75524780479725L1529.9713417311345 445.8333333786532Q1529.9713417311345 461.10861175271094 1524.384799993626 472.92941021178746Q1518.7712701317814 484.7502086708639 1508.5427710085164 491.38928725746854Q1498.2872837609157 498.02836584407316 1484.1455066089613 498.02836584407316ZM1484.1455066089613 483.4008024540744L1484.1455066089613 483.4008024540744Q1493.0515876397722 483.4008024540744 1499.0969274909896 478.5159519492962Q1505.1152792178711 473.63110144451804 1508.1919253921512 465.15683040307965Q1511.2685715664313 456.6555712373054 1511.2685715664313 445.8333333786532L1511.2685715664313 445.8333333786532L1511.2685715664313 443.75524780479725Q1511.2685715664313 432.93300994614503 1508.1919253921512 424.43175078037086Q1505.1152792178711 415.9574797389325 1499.042951242318 411.0726292341543Q1492.970623266765 406.1877787293761 1483.9565897386108 406.1877787293761L1483.9565897386108 406.1877787293761Q1475.0235205834638 406.1877787293761 1468.951192607911 411.0726292341543Q1462.8788646323578 415.9574797389325 1459.8561947067494 424.43175078037086Q1456.8065366568048 432.93300994614503 1456.8065366568048 443.75524780479725L1456.8065366568048 443.75524780479725L1456.8065366568048 445.8333333786532Q1456.8065366568048 456.6555712373054 1459.8561947067494 465.15683040307965Q1462.8788646323578 473.63110144451804 1469.0051688565827 478.5159519492962Q1475.1314730808072 483.4008024540744 1484.1455066089613 483.4008024540744ZM1601.0310731072725 482.1863368589638L1582.3552910669052 482.1863368589638L1582.3552910669052 438.627504180997L1544.3020357534397 438.627504180997L1544.3020357534397 421.7329383467918L1582.3552910669052 421.7329383467918L1582.3552910669052 381.60159745947044L1601.0310731072725 381.60159745947044L1601.0310731072725 421.7329383467918L1638.9763759233947 421.7329383467918L1638.9763759233947 438.627504180997L1601.0310731072725 438.627504180997L1601.0310731072725 482.1863368589638Z " fill="#363636" transform="matrix(0.53386981213673,0,0,0.53386981213673,0,74.1579203941494)"/></g></svg>